{"title":"The.Rise.of.theKrays.2015.BRRip.AC3.XviD.VAiN","uid":12345519,"size":1557393767,"categoryP":"video","categoryS":"movies","magnet":"?xt=urn:btih:265120f6a521db481fc5c711decbf67efaa862f0&amp;dn=The.Rise.of.theKrays.2015.BRRip.AC3.XviD.VAiN&amp;tr=udp%3A%2F%2Ftracker.openbittorrent.com%3A80&amp;tr=udp%3A%2F%2Fopen.demonii.com%3A1337&amp;tr=udp%3A%2F%2Ftracker.coppersurfer.tk%3A6969&amp;tr=udp%3A%2F%2Fexodus.desync.com%3A6969","seeders":1,"leechers":0,"uploader":"TvTeam","files":3,"time":1441349492,"description":"------------------------------------------------------------------------\n\n &lt;a href=&quot; https://www.torrenting.com&quot; rel=&quot;nofollow&quot; target=&quot;_NEW&quot;&gt; https://www.torrenting.com&lt;/a&gt;\n\nSign up is OPEN - for time being. Come and have fun\n\n.......................................................................................................................[IMG]http://i.imgur.com/FJi0aRt.png[/IMG] \n\n[b]P R E S E N T S . . . .[/b] \n\nThe.Rise.of.the.Krays.BRRip.AC3.XviD.VAIN\n\niMDB........ :http://www.imdb.com/title/tt2945796/?ref_=nv_sr_2\n\nPLOT........ : Follows the early years of two unknown 18 year old amateur boxers who quickly fought their way to becoming the most feared and respected villains in all of London. Told through the eyes of a close friend that survived them, we see them rise to infamy through drugs, sex and murder. \n\nT E C H N i C A L . i N F O . . .\n\nGeneral\nComplete name                            : The.Rise.of.the.Krays.2015.BRRip.AC3.XviD.VAiN.avi\nFormat                                   : AVI\nFormat/Info                              : Audio Video Interleave\nFormat profile                           : OpenDML\nFormat settings                          : rec\nFile size                                : 1.45 GiB\nDuration                                 : 1h 50mn\nOverall bit rate                         : 1 875 Kbps\nWriting application                      : AVI-Mux GUI 1.17.8.3, Feb 16 201019:42:50\n\nVideo\nID                                       : 0\nFormat                                   : MPEG-4 Visual\nFormat profile                           : Advanced Simple@L5\nFormat settings, BVOP                    : 2\nFormat settings, QPel                    : No\nFormat settings, GMC                     : No warppoints\nFormat settings, Matrix                  : Default (MPEG)\nCodec ID                                 : XVID\nCodec ID/Hint                            : XviD\nDuration                                 : 1h 50mn\nBit rate                                 : 1 421 Kbps\nWidth                                    : 720 pixels\nHeight                                   : 384 pixels\nDisplay aspect ratio                     : 1.85:1\nFrame rate                               : 25.000 fps\nColor space                              : YUV\nChroma subsampling                       : 4:2:0\nBit depth                                : 8 bits\nScan type                                : Progressive\nCompression mode                         : Lossy\nBits/(Pixel*Frame)                       : 0.206\nStream size                              : 1.10 GiB (76%)\nWriting library                          : XviD 1.2.1 (UTC 2008-12-04)\n\nAudio\nID                                       : 1\nFormat                                   : AC-3\nFormat/Info                              : Audio Coding 3\nMode extension                           : CM (complete main)\nFormat settings, Endianness              : Big\nCodec ID                                 : 2000\nDuration                                 : 1h 50mn\nBit rate mode                            : Constant\nBit rate                                 : 448 Kbps\nChannel(s)                               : 6 channels\nChannel positions                        : Front: L C R, Side: L R, LFE\nSampling rate                            : 44.1 KHz\nBit depth                                : 16 bits\nCompression mode                         : Lossy\nStream size                              : 355 MiB (24%)\nAlignment                                : Aligned on interleaves\nInterleave, duration                     : 70 ms (1.74 video frames)\nInterleave, preload duration             : 417 ms\n\n\n\n\n\nE N C O D E R S . N O T E S . . .       \n\nSOURCE......:  The.Rise.of.the.Krays.2015.720p.BluRay.X264-TRiPS:thanks \n............:\nSAMPLE......: nope\nADDED NOTE..: source :The.Rise.of.the.Krays.2015.720p.BluRay.X264-TRiPS( thx to you know who )   Resized , Sharpen ,Tweeked here &amp; there ...then slapped ya mum on her ass lol\n\nIMHO V/10 a/10 m/.9 lol\n\n\n\nS C R E E N . S H O T S . . .\n\n[img]http://i.imgur.com/wF6BVTR.png[/img]\n\n[img]http://i.imgur.com/KNGQzL9.png[/img]\n\n[img]http://i.imgur.com/kSCsMy3.png[/img]\n\n[img]http://i.imgur.com/Hao8Jyw.png[/img]\n\n[img]http://i.imgur.com/5Mxezi4.png[/img]\n\n[img]http://i.imgur.com/n4W7o96.png[/img]\n\n[img]http://i.imgur.com/v40fXPn.png[/img]\n\n[img]http://i.imgur.com/tXzpEOd.png[/img]\n\n\n\n\ngot any funny stories, jokes, nakid pix of ya sisters/gf's or just want to reach out to us giz us some treats send to... &lt;a class=&quot;__cf_email__&quot; href=&quot;/cdn-cgi/l/email-protection&quot; data-cfemail=&quot;3f697e56717f574a4c57525e565311525a&quot;&gt;[email&amp;#160;protected]&lt;/a&gt;&lt;script data-cfhash='f9e31' type=&quot;text/javascript&quot;&gt;\n/* &lt;![CDATA[ */!function(){try{var t=&quot;currentScript&quot;in document?document.currentScript:function(){for(var t=document.getElementsByTagName(&quot;script&quot;),e=t.length;e--;)if(t[e].getAttribute(&quot;data-cfhash&quot;))return t[e]}();if(t&amp;&amp;t.previousSibling){var e,r,n,i,c=t.previousSibling,a=c.getAttribute(&quot;data-cfemail&quot;);if(a){for(e=&quot;&quot;,r=parseInt(a.substr(0,2),16),n=2;a.length-n;n+=2)i=parseInt(a.substr(n,2),16)^r,e+=String.fromCharCode(i);e=document.createTextNode(e),c.parentNode.replaceChild(e,c)}t.parentNode.removeChild(t);}}catch(u){}}()/* ]]&gt; */&lt;/script&gt; ;) \n\n\n\nGREETZ:\n\nHive-CM8 | Rx | REFiLL | JEDI | DREAMER n' LADY | 26k |Unevano | EsX | TOFFEE\nGH0ST | ViSiON | Sugarb | MenaceIISociety | STARLETS | GUSH | A.C.A.B. | jamie111 | TED |\n\nAnd all the release grps that don't hide behind new names, or live in the past n glory of old has been that neva were release grps","torrent":{"xt":"urn:btih:265120f6a521db481fc5c711decbf67efaa862f0","amp;dn":"The.Rise.of.theKrays.2015.BRRip.AC3.XviD.VAiN","amp;tr":["udp%3A%2F%2Ftracker.openbittorrent.com%3A80","udp%3A%2F%2Fopen.demonii.com%3A1337","udp%3A%2F%2Ftracker.coppersurfer.tk%3A6969","udp%3A%2F%2Fexodus.desync.com%3A6969"],"infoHash":"265120f6a521db481fc5c711decbf67efaa862f0","infoHashBuffer":{"type":"Buffer","data":[38,81,32,246,165,33,219,72,31,197,199,17,222,203,246,126,250,168,98,240]},"announce":[],"urlList":[]}}